<?xml version="1.0" encoding="UTF-8"?>
<!DOCTYPE svg PUBLIC "-//W3C//DTD SVG 1.1//EN" "http://www.w3.org/Graphics/SVG/1.1/DTD/svg11.dtd">
<svg xmlns="http://www.w3.org/2000/svg" version="1.1" width="157px" height="125px" style="shape-rendering:geometricPrecision; text-rendering:geometricPrecision; image-rendering:optimizeQuality; fill-rule:evenodd; clip-rule:evenodd" xmlns:xlink="http://www.w3.org/1999/xlink">
<g><path style="opacity:1" fill="#027ffd" d="M 14.5,13.5 C 34.5542,13.0484 54.5542,13.5484 74.5,15C 76.8249,20.7195 79.1582,26.2195 81.5,31.5C 83.4247,35.3793 84.758,39.3793 85.5,43.5C 85.4142,44.4959 85.7476,45.3292 86.5,46C 96.5,46.3333 106.5,46.6667 116.5,47C 117.883,48.4609 117.549,49.2942 115.5,49.5C 115.167,49.5 114.833,49.5 114.5,49.5C 106.016,48.507 97.3494,48.1736 88.5,48.5C 88.2627,49.791 88.596,50.791 89.5,51.5C 91.7926,59.6298 93.4593,67.9631 94.5,76.5C 86.1667,76.5 77.8333,76.5 69.5,76.5C 69.326,82.5739 68.326,82.9072 66.5,77.5C 56.6751,76.6698 46.6751,76.1698 36.5,76C 34.0829,74.8563 33.4162,73.1897 34.5,71C 31.9077,68.2027 29.9077,64.3694 28.5,59.5C 28.0431,58.7025 27.3764,58.3691 26.5,58.5C 26.5,58.1667 26.5,57.8333 26.5,57.5C 25.4964,52.4843 24.3298,47.4843 23,42.5C 22.3292,41.7476 21.4959,41.4142 20.5,41.5C 20.5,40.8333 20.5,40.1667 20.5,39.5C 20.1428,35.737 19.3095,32.0704 18,28.5C 17.5831,27.244 16.7498,26.5774 15.5,26.5C 14.7659,25.2921 14.4326,23.9587 14.5,22.5C 14.5,19.5 14.5,16.5 14.5,13.5 Z"/></g>
<g><path style="opacity:1" fill="#77a9e3" d="M 14.5,13.5 C 14.5,16.5 14.5,19.5 14.5,22.5C 11.983,19.4611 11.983,16.4611 14.5,13.5 Z"/></g>
<g><path style="opacity:1" fill="#5597eb" d="M 14.5,13.5 C 33.9957,12.3376 53.6624,12.1709 73.5,13C 77.9909,15.4758 80.3243,19.3091 80.5,24.5C 80.6741,26.861 81.0074,29.1944 81.5,31.5C 79.1582,26.2195 76.8249,20.7195 74.5,15C 54.5542,13.5484 34.5542,13.0484 14.5,13.5 Z"/></g>
<g><path style="opacity:1" fill="#64a0e7" d="M 15.5,26.5 C 16.7498,26.5774 17.5831,27.244 18,28.5C 19.3095,32.0704 20.1428,35.737 20.5,39.5C 18.5978,35.3447 16.9311,31.0114 15.5,26.5 Z"/></g>
<g><path style="opacity:1" fill="#5698e3" d="M 80.5,24.5 C 83.2042,30.9415 85.5375,37.6082 87.5,44.5C 86.8333,44.1667 86.1667,43.8333 85.5,43.5C 84.758,39.3793 83.4247,35.3793 81.5,31.5C 81.0074,29.1944 80.6741,26.861 80.5,24.5 Z"/></g>
<g><path style="opacity:0.851" fill="#4c9cee" d="M 114.5,49.5 C 105.766,48.865 97.4329,49.5316 89.5,51.5C 88.596,50.791 88.2627,49.791 88.5,48.5C 97.3494,48.1736 106.016,48.507 114.5,49.5 Z"/></g>
<g><path style="opacity:1" fill="#5398e4" d="M 20.5,41.5 C 21.4959,41.4142 22.3292,41.7476 23,42.5C 24.3298,47.4843 25.4964,52.4843 26.5,57.5C 24.324,52.3145 22.324,46.9811 20.5,41.5 Z"/></g>
<g><path style="opacity:1" fill="#5996ea" d="M 85.5,43.5 C 86.1667,43.8333 86.8333,44.1667 87.5,44.5C 97.9122,44.0738 108.246,44.5738 118.5,46C 120.049,47.214 121.215,48.714 122,50.5C 124.607,58.1534 127.107,65.8201 129.5,73.5C 128.15,72.5169 127.15,71.1836 126.5,69.5C 125.548,71.0453 125.215,72.712 125.5,74.5C 122.568,66.0444 119.235,57.7111 115.5,49.5C 117.549,49.2942 117.883,48.4609 116.5,47C 106.5,46.6667 96.5,46.3333 86.5,46C 85.7476,45.3292 85.4142,44.4959 85.5,43.5 Z"/></g>
<g><path style="opacity:1" fill="#3385e3" d="M 26.5,58.5 C 27.3764,58.3691 28.0431,58.7025 28.5,59.5C 29.9077,64.3694 31.9077,68.2027 34.5,71C 33.4162,73.1897 34.0829,74.8563 36.5,76C 46.6751,76.1698 56.6751,76.6698 66.5,77.5C 56.8333,77.5 47.1667,77.5 37.5,77.5C 35.0968,77.607 33.2635,76.607 32,74.5C 29.863,69.2553 28.0297,63.922 26.5,58.5 Z"/></g>
<g><path style="opacity:1" fill="#0e7df0" d="M 129.5,73.5 C 129.5,73.8333 129.5,74.1667 129.5,74.5C 129.785,76.288 129.452,77.9547 128.5,79.5C 127.675,77.6404 126.675,75.9738 125.5,74.5C 125.215,72.712 125.548,71.0453 126.5,69.5C 127.15,71.1836 128.15,72.5169 129.5,73.5 Z"/></g>
<g><path style="opacity:0.054" fill="#d3f8fc" d="M 37.5,77.5 C 47.1667,77.5 56.8333,77.5 66.5,77.5C 66.5,78.5 66.5,79.5 66.5,80.5C 56.9125,78.8861 47.2458,77.8861 37.5,77.5 Z"/></g>
<g><path style="opacity:1" fill="#4a90e5" d="M 125.5,74.5 C 126.675,75.9738 127.675,77.6404 128.5,79.5C 129.452,77.9547 129.785,76.288 129.5,74.5C 131.204,77.9385 132.538,81.6052 133.5,85.5C 132.069,84.0975 130.902,82.4308 130,80.5C 129.505,82.4727 129.338,84.4727 129.5,86.5C 127.595,82.7843 126.261,78.7843 125.5,74.5 Z"/></g>
<g><path style="opacity:1" fill="#82b2e3" d="M 66.5,82.5 C 68.1765,83.1834 68.8432,84.5168 68.5,86.5C 67.6554,85.3285 66.9887,83.9952 66.5,82.5 Z"/></g>
<g><path style="opacity:1" fill="#5494ea" d="M 89.5,51.5 C 93.393,59.3522 95.5597,67.6855 96,76.5C 95.2496,77.1258 94.4162,77.6258 93.5,78C 85.8333,78.3333 78.1667,78.6667 70.5,79C 73.5518,87.9953 76.8852,96.8286 80.5,105.5C 80.5,105.833 80.5,106.167 80.5,106.5C 78.9519,106.821 78.2852,107.821 78.5,109.5C 76.4959,108.327 74.9959,106.66 74,104.5C 71.8568,98.572 70.0234,92.572 68.5,86.5C 68.8432,84.5168 68.1765,83.1834 66.5,82.5C 66.5,81.8333 66.5,81.1667 66.5,80.5C 66.5,79.5 66.5,78.5 66.5,77.5C 68.326,82.9072 69.326,82.5739 69.5,76.5C 77.8333,76.5 86.1667,76.5 94.5,76.5C 93.4593,67.9631 91.7926,59.6298 89.5,51.5 Z"/></g>
<g><path style="opacity:1" fill="#197ff1" d="M 133.5,85.5 C 134.234,86.7079 134.567,88.0413 134.5,89.5C 135.205,92.2443 135.205,94.911 134.5,97.5C 132.981,93.5432 131.315,89.8766 129.5,86.5C 129.338,84.4727 129.505,82.4727 130,80.5C 130.902,82.4308 132.069,84.0975 133.5,85.5 Z"/></g>
<g><path style="opacity:1" fill="#72adee" d="M 129.5,86.5 C 131.315,89.8766 132.981,93.5432 134.5,97.5C 135.205,94.911 135.205,92.2443 134.5,89.5C 137.003,94.5306 139.003,99.864 140.5,105.5C 140.332,107.171 139.665,108.504 138.5,109.5C 138.74,106.421 138.407,103.421 137.5,100.5C 136.641,99.2258 135.974,99.3925 135.5,101C 136.233,102.766 136.567,104.599 136.5,106.5C 117.833,106.5 99.1667,106.5 80.5,106.5C 80.5,106.167 80.5,105.833 80.5,105.5C 98.8364,105.667 117.17,105.5 135.5,105C 132.999,98.9972 130.999,92.8306 129.5,86.5 Z"/></g>
<g><path style="opacity:1" fill="#3886e8" d="M 138.5,109.5 C 118.598,110.825 98.5978,110.825 78.5,109.5C 78.2852,107.821 78.9519,106.821 80.5,106.5C 99.1667,106.5 117.833,106.5 136.5,106.5C 136.567,104.599 136.233,102.766 135.5,101C 135.974,99.3925 136.641,99.2258 137.5,100.5C 138.407,103.421 138.74,106.421 138.5,109.5 Z"/></g>
</svg>
